# xmcd
#
# Track frame offsets:
#	150
#	11745
#	24637
#	38324
#	53040
#	68056
#	82952
#	95192
#	107024
#	124260
#	135786
#	147267
#	160721
#	175316
#	187534
#	200524
#	213769
#	225920
#	242985
#	257819
#	267437
#	279155
#	290623
#	301380
#
# Disc length: 4194 seconds
#
# Revision: 0
# Processed by: cddbd v1.5.2PL0 Copyright (c) Steve Scherf et al.
# Submitted via: audiograbber 1.83.01
#
DISCID=42106018
DTITLE=Lee.Johnny - Country Candy Store
DYEAR=2005
DGENRE=Country
TTITLE0=Candy Store
TTITLE1=Ruby Louise
TTITLE2=Dear Alice
TTITLE3=Rocky Mountain Top (inst.)
TTITLE4=Frisco
TTITLE5=Country Party
TTITLE6=This Time
TTITLE7=Galveston  (inst.)
TTITLE8=Daddy Number Two
TTITLE9=Ramblin' Rose
TTITLE10=Congratulations
TTITLE11=Saturday's Hero
TTITLE12=Long Black Velvet
TTITLE13=How's His Memory
TTITLE14=Blueberry Hill
TTITLE15=Kawliga (inst.)
TTITLE16=It's Gonna Be Me
TTITLE17=Your Song
TTITLE18=Gentle On My Mind (inst.)
TTITLE19=Red Sails In The Sunset
TTITLE20=Folsom Prisom Blues (inst.)
TTITLE21=Victims Of The Pretty Things In Life
TTITLE22=In The Ghetto (inst.)
TTITLE23=Why Don't We Live
EXTD=
EXTT0=
EXTT1=
EXTT2=
EXTT3=
EXTT4=
EXTT5=
EXTT6=
EXTT7=
EXTT8=
EXTT9=
EXTT10=
EXTT11=
EXTT12=
EXTT13=
EXTT14=
EXTT15=
EXTT16=
EXTT17=
EXTT18=
EXTT19=
EXTT20=
EXTT21=
EXTT22=
EXTT23=
PLAYORDER=
